<svg width="804" height="953" viewBox="0 0 804 953" fill="none" xmlns="http://www.w3.org/2000/svg">
<path d="M388.523 808.287C388.523 808.287 319.642 927.084 253.136 904.629C186.63 882.175 175.082 852.137 169.804 832.001C155.61 777.858 197.54 721.594 143.136 660.049C88.7324 598.505 74.1649 567.124 58.9963 505.236C43.8277 443.348 34.5832 384.094 66.7788 291.678C98.9743 199.263 156.35 119.872 260.733 75.5122C360.455 33.1332 438.653 35.4369 538.158 79.6786C637.662 123.92 676.109 169.476 702.019 211.236C727.929 252.996 754.664 311.847 757.77 381.889C761.843 473.697 751.827 542.656 684.914 605.648C639.746 648.167 599.658 680.474 540.211 671.165C466.37 659.601 417.516 608.481 404.571 536.146C396.76 492.496 397.902 462.057 425.216 429.701C446.767 404.171 466.822 383.99 501.309 390.601C527.616 395.643 543.496 405.282 557.575 428.07C590.605 481.531 542.152 544.179 490.218 579.563C437.666 615.368 377.664 616.682 327.492 585.48C277.32 554.279 243.995 509.221 237.73 467.301C231.465 425.381 236.515 408.353 250.437 377.041C264.359 345.728 283.781 326.05 283.781 326.05" stroke="#0168E7" stroke-width="90" stroke-linecap="round"/>
</svg>
